<svg version="1.1" viewBox="0.0 0.0 128.0 128.0" fill="none" stroke="none" stroke-linecap="square" stroke-miterlimit="10" xmlns:xlink="http://www.w3.org/1999/xlink" xmlns="http://www.w3.org/2000/svg"><clipPath id="p.0"><path d="m0 0l128.0 0l0 128.0l-128.0 0l0 -128.0z" clip-rule="nonzero"/></clipPath><g clip-path="url(#p.0)"><path fill="#000000" fill-opacity="0.0" d="m0 0l128.0 0l0 128.0l-128.0 0z" fill-rule="evenodd"/><path fill="#b7b7b7" d="m-0.0131233595 0.002624672l128.0 0l0 128.0l-128.0 0z" fill-rule="evenodd"/><path stroke="#000000" stroke-width="1.0" stroke-linejoin="round" stroke-linecap="butt" d="m-0.0131233595 0.002624672l128.0 0l0 128.0l-128.0 0z" fill-rule="evenodd"/><path fill="#000000" fill-opacity="0.0" d="m0.12598425 0.002624672l127.74803 0" fill-rule="evenodd"/><path stroke="#d9d9d9" stroke-width="1.0" stroke-linejoin="round" stroke-linecap="butt" d="m0.12598425 0.002624672l127.74803 0" fill-rule="evenodd"/><path fill="#000000" fill-opacity="0.0" d="m0 0l0 127.81102" fill-rule="evenodd"/><path stroke="#cccccc" stroke-width="1.0" stroke-linejoin="round" stroke-linecap="butt" d="m0 0l0 127.81102" fill-rule="evenodd"/><defs><linearGradient id="p.1" gradientUnits="userSpaceOnUse" gradientTransform="matrix(7.483328131690285 0.0 0.0 7.483328131690285 0.0 0.0)" spreadMethod="pad" x1="1.0690430593470466" y1="8.552317758564337" x2="1.0690160006194716" y2="16.0356458902057"><stop offset="0.0" stop-color="#3177ee"/><stop offset="1.0" stop-color="#113d8a"/></linearGradient></defs><path fill="url(#p.1)" d="m8.0 64.0l56.0 56.0l-56.0 0z" fill-rule="evenodd"/><path stroke="#000000" stroke-width="1.0" stroke-linejoin="round" stroke-linecap="butt" d="m8.0 64.0l56.0 56.0l-56.0 0z" fill-rule="evenodd"/><defs><linearGradient id="p.2" gradientUnits="userSpaceOnUse" gradientTransform="matrix(-7.483328474203991 0.0 0.0 7.483328474203991 0.0 0.0)" spreadMethod="pad" x1="-16.035645156250407" y1="8.552316682091691" x2="-16.035671187430175" y2="16.035645156250407"><stop offset="0.0" stop-color="#3177ee"/><stop offset="1.0" stop-color="#113d8a"/></linearGradient></defs><path fill="url(#p.2)" d="m120.0 64.0l-56.0 56.0l56.0 0z" fill-rule="evenodd"/><path stroke="#000000" stroke-width="1.0" stroke-linejoin="round" stroke-linecap="butt" d="m120.0 64.0l-56.0 56.0l56.0 0z" fill-rule="evenodd"/><defs><linearGradient id="p.3" gradientUnits="userSpaceOnUse" gradientTransform="matrix(7.483328131690438 0.0 0.0 -7.483328131690438 0.0 0.0)" spreadMethod="pad" x1="1.0690430593470244" y1="-8.552371190988232" x2="1.0690159149905647" y2="-1.0690430593470244"><stop offset="0.0" stop-color="#3177ee"/><stop offset="1.0" stop-color="#113d8a"/></linearGradient></defs><path fill="url(#p.3)" d="m8.0 64.0l56.0 -56.0l-56.0 0z" fill-rule="evenodd"/><path stroke="#000000" stroke-width="1.0" stroke-linejoin="round" stroke-linecap="butt" d="m8.0 64.0l56.0 -56.0l-56.0 0z" fill-rule="evenodd"/><defs><linearGradient id="p.4" gradientUnits="userSpaceOnUse" gradientTransform="matrix(-7.483328474206438 0.0 0.0 -7.483328474206438 0.0 0.0)" spreadMethod="pad" x1="-16.035645156245167" y1="-8.552371484572616" x2="-16.035672557487025" y2="-1.0690430104163444"><stop offset="0.0" stop-color="#3177ee"/><stop offset="1.0" stop-color="#113d8a"/></linearGradient></defs><path fill="url(#p.4)" d="m120.0 64.0l-56.0 -56.0l56.0 0z" fill-rule="evenodd"/><path stroke="#000000" stroke-width="1.0" stroke-linejoin="round" stroke-linecap="butt" d="m120.0 64.0l-56.0 -56.0l56.0 0z" fill-rule="evenodd"/><defs><radialGradient id="p.5" gradientUnits="userSpaceOnUse" gradientTransform="matrix(9.51365693227718 0.0 0.0 9.51365693227718 0.0 0.0)" spreadMethod="pad" cx="3.363585656681915" cy="3.363585656681916" fx="3.363585656681915" fy="3.363585656681916" r="9.513656616210938"><stop offset="0.0" stop-color="#c9daf8"/><stop offset="1.0" stop-color="#0b5394"/></radialGradient></defs><path fill="url(#p.5)" d="m32.0 64.0l0 0c0 -17.673111 14.326889 -32.0 32.0 -32.0l0 0c8.486931 0 16.626251 3.371418 22.627419 9.3725815c6.0011597 6.0011673 9.3725815 14.1404915 9.3725815 22.627419l0 0c0 17.673111 -14.326889 32.0 -32.0 32.0l0 0c-17.673111 0 -32.0 -14.326889 -32.0 -32.0z" fill-rule="evenodd"/><path stroke="#000000" stroke-width="1.0" stroke-linejoin="round" stroke-linecap="butt" d="m32.0 64.0l0 0c0 -17.673111 14.326889 -32.0 32.0 -32.0l0 0c8.486931 0 16.626251 3.371418 22.627419 9.3725815c6.0011597 6.0011673 9.3725815 14.1404915 9.3725815 22.627419l0 0c0 17.673111 -14.326889 32.0 -32.0 32.0l0 0c-17.673111 0 -32.0 -14.326889 -32.0 -32.0z" fill-rule="evenodd"/><path fill="#000000" fill-opacity="0.0" d="m64.0 8.0l-56.0 56.0" fill-rule="evenodd"/><path stroke="#d9d9d9" stroke-width="1.0" stroke-linejoin="round" stroke-linecap="butt" d="m64.0 8.0l-56.0 56.0" fill-rule="evenodd"/><path fill="#000000" fill-opacity="0.0" d="m64.0 120.0l56.0 0" fill-rule="evenodd"/><path stroke="#cccccc" stroke-width="1.0" stroke-linejoin="round" stroke-linecap="butt" d="m64.0 120.0l56.0 0" fill-rule="evenodd"/><path fill="#000000" fill-opacity="0.0" d="m120.0 64.0l0 56.0" fill-rule="evenodd"/><path stroke="#cccccc" stroke-width="1.0" stroke-linejoin="round" stroke-linecap="butt" d="m120.0 64.0l0 56.0" fill-rule="evenodd"/><path fill="#000000" fill-opacity="0.0" d="m120.0 8.0l0 56.0" fill-rule="evenodd"/><path stroke="#cccccc" stroke-width="1.0" stroke-linejoin="round" stroke-linecap="butt" d="m120.0 8.0l0 56.0" fill-rule="evenodd"/><path fill="#000000" fill-opacity="0.0" d="m8.0 120.0l56.0 0" fill-rule="evenodd"/><path stroke="#cccccc" stroke-width="1.0" stroke-linejoin="round" stroke-linecap="butt" d="m8.0 120.0l56.0 0" fill-rule="evenodd"/><path fill="#000000" fill-opacity="0.0" d="m85.963234 40.727345l0 0c6.604683 6.233074 10.249901 14.978878 10.027138 24.057613l-31.990372 -0.7849579z" fill-rule="evenodd"/><path fill="#000000" fill-opacity="0.0" d="m85.963234 40.727345l0 0c6.604683 6.233074 10.249901 14.978878 10.027138 24.057613" fill-rule="evenodd"/><path stroke="#cccccc" stroke-width="1.0" stroke-linejoin="round" stroke-linecap="butt" d="m85.963234 40.727345l0 0c6.604683 6.233074 10.249901 14.978878 10.027138 24.057613" fill-rule="evenodd"/><path fill="#000000" fill-opacity="0.0" d="m95.9995 63.820248l0 0c0.048614502 8.654079 -3.4100342 16.958843 -9.58709 23.020153c-6.1770477 6.06131 -14.5457535 9.362259 -23.197365 9.149971l0.7849579 -31.990372z" fill-rule="evenodd"/><path fill="#000000" fill-opacity="0.0" d="m95.9995 63.820248l0 0c0.048614502 8.654079 -3.4100342 16.958843 -9.58709 23.020153c-6.1770477 6.06131 -14.5457535 9.362259 -23.197365 9.149971" fill-rule="evenodd"/><path stroke="#cccccc" stroke-width="1.0" stroke-linejoin="round" stroke-linecap="butt" d="m95.9995 63.820248l0 0c0.048614502 8.654079 -3.4100342 16.958843 -9.58709 23.020153c-6.1770477 6.06131 -14.5457535 9.362259 -23.197365 9.149971" fill-rule="evenodd"/><path fill="#000000" fill-opacity="0.0" d="m64.179756 95.9995l0 0c-9.499054 0.053359985 -18.530834 -4.116295 -24.651516 -11.380745l24.47176 -20.618752z" fill-rule="evenodd"/><path fill="#000000" fill-opacity="0.0" d="m64.179756 95.9995l0 0c-9.499054 0.053359985 -18.530834 -4.116295 -24.651516 -11.380745" fill-rule="evenodd"/><path stroke="#cccccc" stroke-width="1.0" stroke-linejoin="round" stroke-linecap="butt" d="m64.179756 95.9995l0 0c-9.499054 0.053359985 -18.530834 -4.116295 -24.651516 -11.380745" fill-rule="evenodd"/><path fill="#000000" fill-opacity="0.0" d="m64.81101 40.013706l0 0c-6.478054 -0.21903229 -12.769264 2.191494 -17.442371 6.683174c-4.673107 4.491684 -7.330723 10.682568 -7.3682404 17.164211l23.9996 0.13890839z" fill-rule="evenodd"/><path fill="#000000" fill-opacity="0.0" d="m64.81101 40.013706l0 0c-6.478054 -0.21903229 -12.769264 2.191494 -17.442371 6.683174c-4.673107 4.491684 -7.330723 10.682568 -7.3682404 17.164211" fill-rule="evenodd"/><path stroke="#f3f3f3" stroke-width="3.0" stroke-linejoin="round" stroke-linecap="butt" d="m64.81101 40.013706l0 0c-6.478054 -0.21903229 -12.769264 2.191494 -17.442371 6.683174c-4.673107 4.491684 -7.330723 10.682568 -7.3682404 17.164211" fill-rule="evenodd"/><path fill="#000000" fill-opacity="0.0" d="m63.188988 87.98629l0 0c6.47805 0.21903229 12.769264 -2.1914902 17.442368 -6.683174c4.673111 -4.4916763 7.3307266 -10.682564 7.3682404 -17.164207l-23.999596 -0.13890839z" fill-rule="evenodd"/><path fill="#000000" fill-opacity="0.0" d="m63.188988 87.98629l0 0c6.47805 0.21903229 12.769264 -2.1914902 17.442368 -6.683174c4.673111 -4.4916763 7.3307266 -10.682564 7.3682404 -17.164207" fill-rule="evenodd"/><path stroke="#999999" stroke-width="2.0" stroke-linejoin="round" stroke-linecap="butt" d="m63.188988 87.98629l0 0c6.47805 0.21903229 12.769264 -2.1914902 17.442368 -6.683174c4.673111 -4.4916763 7.3307266 -10.682564 7.3682404 -17.164207" fill-rule="evenodd"/></g></svg>