<?xml version="1.0" encoding="UTF-8" standalone="no"?>
<svg
   xmlns:dc="http://purl.org/dc/elements/1.1/"
   xmlns:cc="http://creativecommons.org/ns#"
   xmlns:rdf="http://www.w3.org/1999/02/22-rdf-syntax-ns#"
   xmlns:svg="http://www.w3.org/2000/svg"
   xmlns="http://www.w3.org/2000/svg"
   xmlns:xlink="http://www.w3.org/1999/xlink"
   xmlns:sodipodi="http://sodipodi.sourceforge.net/DTD/sodipodi-0.dtd"
   xmlns:inkscape="http://www.inkscape.org/namespaces/inkscape"
   version="1.1"
   viewBox="0.0 0.0 128.0 128.0"
   fill="none"
   stroke="none"
   stroke-linecap="square"
   stroke-miterlimit="10"
   id="svg5728"
   sodipodi:docname="gxg.svg"
   inkscape:export-filename="/home/mistergibson/Documents/Development/gxg_www/GxG/Public/themes/setup/icons/gxg.png"
   inkscape:export-xdpi="96"
   inkscape:export-ydpi="96"
   inkscape:version="0.92.3 (2405546, 2018-03-11)">
  <metadata
     id="metadata5734">
    <rdf:RDF>
      <cc:Work
         rdf:about="">
        <dc:format>image/svg+xml</dc:format>
        <dc:type
           rdf:resource="http://purl.org/dc/dcmitype/StillImage" />
      </cc:Work>
    </rdf:RDF>
  </metadata>
  <defs
     id="defs5732">
    <defs
       id="defs5626">
      <linearGradient
         y2="16.0356458902057"
         x2="1.0690160006194716"
         y1="8.552317758564337"
         x1="1.0690430593470466"
         spreadMethod="pad"
         gradientTransform="scale(7.4833281)"
         gradientUnits="userSpaceOnUse"
         id="p.1">
        <stop
           id="stop5621"
           stop-color="#3177ee"
           offset="0.0" />
        <stop
           id="stop5623"
           stop-color="#113d8a"
           offset="1.0" />
      </linearGradient>
    </defs>
    <defs
       id="defs5637">
      <linearGradient
         y2="16.035645156250407"
         x2="-16.035671187430175"
         y1="8.552316682091691"
         x1="-16.035645156250407"
         spreadMethod="pad"
         gradientTransform="scale(-7.4833285,7.4833285)"
         gradientUnits="userSpaceOnUse"
         id="p.2">
        <stop
           id="stop5632"
           stop-color="#3177ee"
           offset="0.0" />
        <stop
           id="stop5634"
           stop-color="#113d8a"
           offset="1.0" />
      </linearGradient>
    </defs>
    <defs
       id="defs5648">
      <linearGradient
         y2="-1.0690430593470244"
         x2="1.0690159149905647"
         y1="-8.552371190988232"
         x1="1.0690430593470244"
         spreadMethod="pad"
         gradientTransform="scale(7.4833281,-7.4833281)"
         gradientUnits="userSpaceOnUse"
         id="p.3">
        <stop
           id="stop5643"
           stop-color="#3177ee"
           offset="0.0" />
        <stop
           id="stop5645"
           stop-color="#113d8a"
           offset="1.0" />
      </linearGradient>
    </defs>
    <defs
       id="defs5659">
      <linearGradient
         y2="-1.0690430104163444"
         x2="-16.035672557487025"
         y1="-8.552371484572616"
         x1="-16.035645156245167"
         spreadMethod="pad"
         gradientTransform="scale(-7.4833285)"
         gradientUnits="userSpaceOnUse"
         id="p.4">
        <stop
           id="stop5654"
           stop-color="#3177ee"
           offset="0.0" />
        <stop
           id="stop5656"
           stop-color="#113d8a"
           offset="1.0" />
      </linearGradient>
    </defs>
    <defs
       id="defs5670">
      <radialGradient
         r="9.513656616210938"
         fy="3.363585656681916"
         fx="3.363585656681915"
         cy="3.363585656681916"
         cx="3.363585656681915"
         spreadMethod="pad"
         gradientTransform="scale(9.5136569)"
         gradientUnits="userSpaceOnUse"
         id="p.5">
        <stop
           id="stop5665"
           stop-color="#c9daf8"
           offset="0.0" />
        <stop
           id="stop5667"
           stop-color="#0b5394"
           offset="1.0" />
      </radialGradient>
    </defs>
    <radialGradient
       inkscape:collect="always"
       xlink:href="#linearGradient1021"
       id="radialGradient1023"
       cx="1764.095"
       cy="819.59424"
       fx="1764.095"
       fy="819.59424"
       r="1439.2594"
       gradientUnits="userSpaceOnUse"
       gradientTransform="matrix(0.02106505,-0.02130706,0.01537069,0.01548191,1.8175375,74.072691)" />
    <linearGradient
       inkscape:collect="always"
       id="linearGradient1021">
      <stop
         style="stop-color:#f2f2f2;stop-opacity:1;"
         offset="0"
         id="stop1017" />
      <stop
         style="stop-color:#2e76ae;stop-opacity:0.99534881"
         offset="1"
         id="stop1019" />
    </linearGradient>
  </defs>
  <sodipodi:namedview
     pagecolor="#ffffff"
     bordercolor="#666666"
     borderopacity="1"
     objecttolerance="10"
     gridtolerance="10"
     guidetolerance="10"
     inkscape:pageopacity="0"
     inkscape:pageshadow="2"
     inkscape:window-width="1182"
     inkscape:window-height="676"
     id="namedview5730"
     showgrid="false"
     inkscape:zoom="1.84375"
     inkscape:cx="70.779661"
     inkscape:cy="64"
     inkscape:window-x="0"
     inkscape:window-y="24"
     inkscape:window-maximized="0"
     inkscape:current-layer="svg5728" />
  <clipPath
     id="p.0">
    <path
       d="m0 0l128.0 0l0 128.0l-128.0 0l0 -128.0z"
       clip-rule="nonzero"
       id="path5604" />
  </clipPath>
  <path
     style="fill:#000000;fill-opacity:0;fill-rule:evenodd"
     inkscape:connector-curvature="0"
     id="path5607"
     d="M 0,0 H 128 V 128 H 0 Z" />
  <path
     style="fill:#b7b7b7;fill-rule:evenodd"
     inkscape:connector-curvature="0"
     id="path5609"
     d="M -0.01312336,0.00262467 H 127.98688 V 128.00262 H -0.01312336 Z" />
  <path
     style="fill-rule:evenodd;stroke:#000000;stroke-width:1;stroke-linecap:butt;stroke-linejoin:round"
     inkscape:connector-curvature="0"
     id="path5611"
     d="M -0.01312336,0.00262467 H 127.98688 V 128.00262 H -0.01312336 Z" />
  <path
     style="fill:#000000;fill-opacity:0;fill-rule:evenodd"
     inkscape:connector-curvature="0"
     id="path5613"
     d="M 0.12598425,0.00262467 H 127.87401" />
  <path
     style="fill-rule:evenodd;stroke:#d9d9d9;stroke-width:1;stroke-linecap:butt;stroke-linejoin:round"
     inkscape:connector-curvature="0"
     id="path5615"
     d="M 0.12598425,0.00262467 H 127.87401" />
  <path
     style="fill:#000000;fill-opacity:0;fill-rule:evenodd"
     inkscape:connector-curvature="0"
     id="path5617"
     d="M 0,0 V 127.81102" />
  <path
     style="fill-rule:evenodd;stroke:#cccccc;stroke-width:1;stroke-linecap:butt;stroke-linejoin:round"
     inkscape:connector-curvature="0"
     id="path5619"
     d="M 0,0 V 127.81102" />
  <path
     inkscape:connector-curvature="0"
     style="fill:url(#p.1);fill-rule:evenodd"
     id="path5628"
     d="m 8,64 56,56 H 8 Z" />
  <path
     style="fill-rule:evenodd;stroke:#000000;stroke-width:1;stroke-linecap:butt;stroke-linejoin:round"
     inkscape:connector-curvature="0"
     id="path5630"
     d="m 8,64 56,56 H 8 Z" />
  <path
     inkscape:connector-curvature="0"
     style="fill:url(#p.2);fill-rule:evenodd"
     id="path5639"
     d="m 120,64 -56,56 h 56 z" />
  <path
     style="fill-rule:evenodd;stroke:#000000;stroke-width:1;stroke-linecap:butt;stroke-linejoin:round"
     inkscape:connector-curvature="0"
     id="path5641"
     d="m 120,64 -56,56 h 56 z" />
  <path
     inkscape:connector-curvature="0"
     style="fill:url(#p.3);fill-rule:evenodd"
     id="path5650"
     d="M 8,64 64,8 H 8 Z" />
  <path
     style="fill-rule:evenodd;stroke:#000000;stroke-width:1;stroke-linecap:butt;stroke-linejoin:round"
     inkscape:connector-curvature="0"
     id="path5652"
     d="M 8,64 64,8 H 8 Z" />
  <path
     inkscape:connector-curvature="0"
     style="fill:url(#p.4);fill-rule:evenodd"
     id="path5661"
     d="M 120,64 64,8 h 56 z" />
  <path
     style="fill-rule:evenodd;stroke:#000000;stroke-width:1;stroke-linecap:butt;stroke-linejoin:round"
     inkscape:connector-curvature="0"
     id="path5663"
     d="M 120,64 64,8 h 56 z" />
  <path
     inkscape:connector-curvature="0"
     style="fill:url(#p.5);fill-rule:evenodd"
     id="path5672"
     d="m 32,64 v 0 C 32,46.326889 46.326889,32 64,32 v 0 c 8.486931,0 16.626251,3.371418 22.627419,9.372582 C 92.628579,47.373749 96,55.513073 96,64 v 0 C 96,81.673112 81.673112,96 64,96 v 0 C 46.326889,96 32,81.673112 32,64 Z" />
  <path
     style="fill-rule:evenodd;stroke:#000000;stroke-width:1;stroke-linecap:butt;stroke-linejoin:round"
     inkscape:connector-curvature="0"
     id="path5674"
     d="m 32,64 v 0 C 32,46.326889 46.326889,32 64,32 v 0 c 8.486931,0 16.626251,3.371418 22.627419,9.372582 C 92.628579,47.373749 96,55.513073 96,64 v 0 C 96,81.673112 81.673112,96 64,96 v 0 C 46.326889,96 32,81.673112 32,64 Z" />
  <path
     style="fill:#000000;fill-opacity:0;fill-rule:evenodd"
     inkscape:connector-curvature="0"
     id="path5676"
     d="M 64,8 8,64" />
  <path
     style="fill-rule:evenodd;stroke:#d9d9d9;stroke-width:1;stroke-linecap:butt;stroke-linejoin:round"
     inkscape:connector-curvature="0"
     id="path5678"
     d="M 64,8 8,64" />
  <path
     style="fill:#000000;fill-opacity:0;fill-rule:evenodd"
     inkscape:connector-curvature="0"
     id="path5680"
     d="m 64,120 h 56" />
  <path
     style="fill-rule:evenodd;stroke:#cccccc;stroke-width:1;stroke-linecap:butt;stroke-linejoin:round"
     inkscape:connector-curvature="0"
     id="path5682"
     d="m 64,120 h 56" />
  <path
     style="fill:#000000;fill-opacity:0;fill-rule:evenodd"
     inkscape:connector-curvature="0"
     id="path5684"
     d="m 120,64 v 56" />
  <path
     style="fill-rule:evenodd;stroke:#cccccc;stroke-width:1;stroke-linecap:butt;stroke-linejoin:round"
     inkscape:connector-curvature="0"
     id="path5686"
     d="m 120,64 v 56" />
  <path
     style="fill:#000000;fill-opacity:0;fill-rule:evenodd"
     inkscape:connector-curvature="0"
     id="path5688"
     d="M 120,8 V 64" />
  <path
     style="fill-rule:evenodd;stroke:#cccccc;stroke-width:1;stroke-linecap:butt;stroke-linejoin:round"
     inkscape:connector-curvature="0"
     id="path5690"
     d="M 120,8 V 64" />
  <path
     style="fill:#000000;fill-opacity:0;fill-rule:evenodd"
     inkscape:connector-curvature="0"
     id="path5692"
     d="M 8,120 H 64" />
  <path
     style="fill-rule:evenodd;stroke:#cccccc;stroke-width:1;stroke-linecap:butt;stroke-linejoin:round"
     inkscape:connector-curvature="0"
     id="path5694"
     d="M 8,120 H 64" />
  <path
     style="fill:#000000;fill-opacity:0;fill-rule:evenodd"
     inkscape:connector-curvature="0"
     id="path5696"
     d="m 85.963234,40.727345 v 0 c 6.604683,6.233074 10.249901,14.978878 10.027138,24.057613 L 64,64 Z" />
  <path
     style="fill:#000000;fill-opacity:0;fill-rule:evenodd"
     inkscape:connector-curvature="0"
     id="path5698"
     d="m 85.963234,40.727345 v 0 c 6.604683,6.233074 10.249901,14.978878 10.027138,24.057613" />
  <path
     style="fill-rule:evenodd;stroke:#cccccc;stroke-width:1;stroke-linecap:butt;stroke-linejoin:round"
     inkscape:connector-curvature="0"
     id="path5700"
     d="m 85.963234,40.727345 v 0 c 6.604683,6.233074 10.249901,14.978878 10.027138,24.057613" />
  <path
     style="fill:#000000;fill-opacity:0;fill-rule:evenodd"
     inkscape:connector-curvature="0"
     id="path5702"
     d="m 95.9995,63.820248 v 0 c 0.04861,8.654079 -3.410034,16.958843 -9.58709,23.020153 -6.177048,6.06131 -14.545754,9.362259 -23.197365,9.149971 L 64.000003,64 Z" />
  <path
     style="fill:#000000;fill-opacity:0;fill-rule:evenodd"
     inkscape:connector-curvature="0"
     id="path5704"
     d="m 95.9995,63.820248 v 0 c 0.04861,8.654079 -3.410034,16.958843 -9.58709,23.020153 -6.177048,6.06131 -14.545754,9.362259 -23.197365,9.149971" />
  <path
     style="fill-rule:evenodd;stroke:#cccccc;stroke-width:1;stroke-linecap:butt;stroke-linejoin:round"
     inkscape:connector-curvature="0"
     id="path5706"
     d="m 95.9995,63.820248 v 0 c 0.04861,8.654079 -3.410034,16.958843 -9.58709,23.020153 -6.177048,6.06131 -14.545754,9.362259 -23.197365,9.149971" />
  <path
     style="fill:#000000;fill-opacity:0;fill-rule:evenodd"
     inkscape:connector-curvature="0"
     id="path5708"
     d="m 64.179756,95.9995 v 0 C 54.680702,96.05286 45.648922,91.883205 39.52824,84.618755 L 64,64.000003 Z" />
  <path
     style="fill:#000000;fill-opacity:0;fill-rule:evenodd"
     inkscape:connector-curvature="0"
     id="path5710"
     d="m 64.179756,95.9995 v 0 C 54.680702,96.05286 45.648922,91.883205 39.52824,84.618755" />
  <path
     style="fill-rule:evenodd;stroke:#cccccc;stroke-width:1;stroke-linecap:butt;stroke-linejoin:round"
     inkscape:connector-curvature="0"
     id="path5712"
     d="m 64.179756,95.9995 v 0 C 54.680702,96.05286 45.648922,91.883205 39.52824,84.618755" />
  <path
     style="fill:#000000;fill-opacity:0;fill-rule:evenodd"
     inkscape:connector-curvature="0"
     id="path5714"
     d="m 64.81101,40.013706 v 0 C 58.332956,39.794674 52.041746,42.2052 47.368639,46.69688 c -4.673107,4.491684 -7.330723,10.682568 -7.36824,17.164211 l 23.9996,0.138908 z" />
  <path
     style="fill:#000000;fill-opacity:0;fill-rule:evenodd"
     inkscape:connector-curvature="0"
     id="path5716"
     d="m 64.81101,40.013706 v 0 C 58.332956,39.794674 52.041746,42.2052 47.368639,46.69688 c -4.673107,4.491684 -7.330723,10.682568 -7.36824,17.164211" />
  <path
     style="fill:#000000;fill-opacity:0;fill-rule:evenodd"
     inkscape:connector-curvature="0"
     id="path5720"
     d="m 63.188988,87.98629 v 0 c 6.47805,0.219032 12.769264,-2.19149 17.442368,-6.683174 4.673111,-4.491676 7.330727,-10.682564 7.36824,-17.164207 L 64,64.000001 Z" />
  <path
     style="fill:#000000;fill-opacity:0;fill-rule:evenodd"
     inkscape:connector-curvature="0"
     id="path5722"
     d="m 63.188988,87.98629 v 0 c 6.47805,0.219032 12.769264,-2.19149 17.442368,-6.683174 4.673111,-4.491676 7.330727,-10.682564 7.36824,-17.164207" />
  <ellipse
     style="fill:url(#radialGradient1023);fill-opacity:1;fill-rule:nonzero;stroke:#83b3dc;stroke-width:0.577214;stroke-linejoin:round;stroke-miterlimit:4;stroke-dasharray:none;stroke-opacity:1"
     id="path997"
     cx="63.728813"
     cy="64.271187"
     rx="30.965643"
     ry="31.255478" />
</svg>
